<?xml version="1.0" encoding="UTF-8"?>
<svg width="300px" height="300px" viewBox="0 0 300 300" version="1.1" xmlns="http://www.w3.org/2000/svg" xmlns:xlink="http://www.w3.org/1999/xlink">
    <!-- Generator: Sketch 46.2 (44496) - http://www.bohemiancoding.com/sketch -->
    <title>Artboard</title>
    <desc>Created with Sketch.</desc>
    <defs>
        <polygon id="path-1" points="0.302353233 0.211595506 80.2834809 0.211595506 80.2834809 60.0885216 0.302353233 60.0885216"></polygon>
    </defs>
    <g id="Page-1" stroke="none" stroke-width="1" fill="none" fill-rule="evenodd">
        <g id="Artboard">
            <g id="logo" transform="translate(42.000000, 43.000000)">
                <polygon id="Fill-1" fill="#B2B2B1" points="191.3736 149.032004 140.3736 142.21887 86.3736 152.437971 36.5736 144.423791 52.7736 126.589656 133.6278 118.173926 185.9736 141.818521"></polygon>
                <path d="M104.8605,61.7798764 C107.1267,66.3249719 109.3419,67.6750955 112.5891,71.8787528 C115.7409,75.9585787 113.1339,81.125236 108.5751,81.966809 C104.0169,82.8089831 99.7419,78.9137022 101.2341,73.9754719 C102.7725,68.888764 104.3601,66.835927 104.8605,61.7798764" id="Fill-2" fill="#7ED321"></path>
                <g id="Group-6" transform="translate(24.600000, 0.389528)">
                    <mask id="mask-2" fill="white">
                        <use xlink:href="#path-1"></use>
                    </mask>
                    <g id="Clip-5"></g>
                    <path d="M6.82968,47.3907208 L48.56748,46.8256646 L68.97348,56.5163781 C68.45988,57.6008051 69.58008,58.5541871 70.86828,59.1661309 L71.94048,59.6758837 C73.42188,60.3785972 74.71068,60.2084792 75.29268,58.9749736 L76.71168,55.9747657 L78.51708,52.1594343 L79.93788,49.1586253 C80.71908,47.5073388 80.15268,46.6633612 78.47388,45.8650691 L77.40108,45.3553163 C76.51188,44.9339287 74.75508,44.2925298 74.15388,45.5633051 L53.74788,35.8725916 L27.70308,3.27245674 C24.33648,-0.902947753 20.35368,-0.765290449 18.36768,3.43235562 L0.98448,40.1730298 C-1.00212,44.371277 1.47168,47.4213781 6.82968,47.3907208" id="Fill-4" fill="#313131" mask="url(#mask-2)"></path>
                </g>
                <polygon id="Fill-7" fill="#313131" points="110.7621 90.7778983 88.4403 151.421651 132.1911 129.901426 135.3369 81.7778758"></polygon>
                <polygon id="Fill-9" fill="#313131" points="73.5738 79.7026169 26.0736 123.384465 84.8448 151.701594 107.1864 91.0073472"></polygon>
                <polygon id="Fill-11" fill="#313131" points="191.3736 149.032004 170.574 94.3297573 138.5382 81.6454483 135.3906 129.800858"></polygon>
                <path d="M0,193.950124 C0,181.817045 9.183,174.111843 20.433,174.111843 C28.3536,174.111843 33.3456,178.136966 36.2154,182.68086 L29.5002,186.360337 C27.7212,183.657084 24.4494,181.357185 20.433,181.357185 C13.4298,181.357185 8.3802,186.705983 8.3802,193.950124 C8.3802,201.194264 13.4298,206.543663 20.433,206.543663 C23.8182,206.543663 26.9748,205.048067 28.5252,203.610781 L28.5252,199.009781 L18.423,199.009781 L18.423,191.881056 L36.675,191.881056 L36.675,206.600169 C32.7714,210.970337 27.3204,213.788404 20.433,213.788404 C9.183,213.788404 0,206.025494 0,193.950124" id="Fill-13" fill="#313131"></path>
                <polygon id="Fill-15" fill="#313131" points="40.60134 213.098014 40.60134 174.743924 67.69134 174.743924 67.69134 181.933362 48.75114 181.933362 48.75114 189.983008 67.28934 189.983008 67.28934 197.170643 48.75114 197.170643 48.75114 205.91098 67.69134 205.91098 67.69134 213.098014"></polygon>
                <path d="M102.21972,193.950124 C102.21972,186.76309 97.68612,181.357185 90.62712,181.357185 C83.50992,181.357185 78.97692,186.76309 78.97692,193.950124 C78.97692,201.081253 83.50992,206.543663 90.62712,206.543663 C97.68612,206.543663 102.21972,201.081253 102.21972,193.950124 M70.59612,193.950124 C70.59612,182.391719 79.03272,174.111843 90.62712,174.111843 C102.16332,174.111843 110.59992,182.391719 110.59992,193.950124 C110.59992,205.509129 102.16332,213.788404 90.62712,213.788404 C79.03272,213.788404 70.59612,205.509129 70.59612,193.950124" id="Fill-17" fill="#313131"></path>
                <polygon id="Fill-19" fill="#7ED321" points="114.13242 213.098014 114.13242 174.743924 122.34102 174.743924 122.34102 205.91098 138.52482 205.91098 138.52482 213.098014"></polygon>
                <path d="M161.03316,182.909767 L155.06436,199.412413 L167.00256,199.412413 L161.03316,182.909767 Z M171.65016,213.098194 L169.24056,206.600048 L152.82636,206.600048 L150.41496,213.098194 L141.17436,213.098194 L155.92536,174.744104 L166.14096,174.744104 L180.89196,213.098194 L171.65016,213.098194 Z" id="Fill-21" fill="#7ED321"></path>
                <path d="M207.3369,201.541112 C207.3369,199.124596 205.6149,197.170343 202.4595,197.170343 L191.8983,197.170343 L191.8983,205.911281 L202.4595,205.911281 C205.5003,205.911281 207.3369,204.30027 207.3369,201.541112 L207.3369,201.541112 Z M206.5911,185.957584 C206.5911,183.599978 204.8691,181.933663 202.1133,181.933663 L191.8983,181.933663 L191.8983,189.982708 L202.1133,189.982708 C204.8691,189.982708 206.5911,188.430006 206.5911,185.957584 L206.5911,185.957584 Z M183.7485,213.098315 L183.7485,174.744225 L203.8935,174.744225 C211.1829,174.744225 214.9137,179.402331 214.9137,184.520899 C214.9137,189.292618 211.9287,192.570545 208.3131,193.317742 C212.4459,193.950124 215.6595,197.917539 215.6595,202.68986 C215.6595,208.497916 211.8705,213.098315 204.5247,213.098315 L183.7485,213.098315 Z" id="Fill-23" fill="#7ED321"></path>
                <path d="M156.5097,121.574061 C156.5457,121.567449 156.5817,121.561438 156.6177,121.554825 C156.5811,121.560235 156.5451,121.564443 156.5097,121.574061" id="Fill-25" fill="#878786"></path>
                <path d="M184.8867,131.971035 C169.7589,134.368316 164.6097,129.086844 160.0653,124.422726 C159.5787,123.923793 159.1053,123.441692 158.6301,122.974018 C164.7483,121.539737 171.4101,118.361597 177.2703,111.939793 L176.5935,110.159866 C176.4627,110.20976 176.3403,110.286703 176.2413,110.397911 C170.0883,117.296406 162.9651,120.362136 156.6177,121.554765 C156.5817,121.561979 156.5457,121.567389 156.5097,121.574001 C153.6537,122.101788 150.9567,122.25267 148.5795,122.203378 C144.0705,122.109602 139.8297,121.321529 136.0245,120.105456 C134.9487,119.761012 133.9077,119.381703 132.9051,118.974743 C127.3935,116.73676 123.0525,113.640372 120.5091,110.668417 L122.9697,86.7274674 C122.9841,86.5862034 122.9625,86.4509506 122.9169,86.326518 L121.1337,86.9793382 L118.8801,108.911333 C115.0311,105.341861 110.1645,104.850142 105.3345,105.5234 C104.0721,105.698928 102.8121,105.953804 101.5737,106.254967 C99.2787,106.812209 97.0569,107.523939 95.0301,108.174355 C91.4859,109.31108 88.4289,110.293316 86.4783,110.064889 C83.3931,109.701209 79.8009,104.323557 76.3281,99.122636 C72.9039,93.9968551 69.3669,88.7129787 65.6157,87.0214169 L64.2327,88.2927933 C64.3245,88.393782 64.4379,88.4773382 64.5747,88.5290348 C67.9389,89.8046191 71.4435,95.051827 74.8323,100.125911 C76.0191,101.902833 77.1855,103.647894 78.3459,105.229451 C75.3351,107.309338 70.1487,106.877731 65.1159,106.455142 C59.0583,105.94599 53.3373,105.465692 50.6949,108.996692 C48.7959,111.532833 48.7275,114.573917 48.6621,117.514613 C48.5523,122.416776 48.4491,127.047833 40.4061,129.816007 C40.2483,129.870108 40.1283,129.984321 40.0611,130.124383 L41.3571,130.748349 C49.6299,127.670597 49.7553,122.296552 49.8615,117.541664 C49.9257,114.664085 49.9869,111.945804 51.6543,109.71804 C53.8989,106.719035 59.2977,107.172282 65.0157,107.653181 C69.7047,108.046917 74.5257,108.452074 77.8965,106.87172 L70.0575,122.848383 C69.9939,122.979428 69.9789,123.129108 70.0167,123.26917 L76.5615,147.710855 L77.8089,148.311979 C77.8695,148.186945 77.8929,148.042675 77.8539,147.898406 L71.2341,123.175996 L79.3749,106.583181 C81.6489,109.474585 83.9127,111.577917 86.2689,111.855636 C88.5987,112.128546 91.8345,111.093411 95.5791,109.891765 C97.2561,109.35376 99.0225,108.7869 100.8201,108.302996 C102.0795,107.963361 103.3551,107.665804 104.6271,107.445793 C109.9185,106.52908 115.1409,106.97331 118.8789,111.532833 C121.6179,114.873276 126.5253,118.400069 132.7827,120.850849 C133.7895,121.244585 134.8311,121.611271 135.9045,121.943692 C139.7619,123.141731 144.0255,123.912372 148.5429,124.006147 C148.8363,124.01276 149.1333,124.015765 149.4363,124.015765 C151.5921,124.015765 153.9723,123.849855 156.4749,123.412838 C157.2435,124.113147 157.9911,124.875973 158.7765,125.682681 C162.6189,129.626052 167.2377,134.368316 177.9567,134.368316 C180.1521,134.368316 182.6055,134.169344 185.3577,133.72331 C185.4195,133.713091 185.4783,133.697462 185.5347,133.675821 L184.8867,131.971035 Z" id="Fill-27" fill="#878786"></path>
                <polygon id="Fill-29" fill="#FEFEFE" points="135.39078 129.800738 138.53838 81.6453281 137.17398 81.104918 135.33678 81.7775753 132.19098 129.901727 133.62798 129.194806"></polygon>
                <polygon id="Fill-31" fill="#FEFEFE" points="108.7236 91.524614 107.1858 91.0076478 84.8448 151.701895 86.3736 152.438271 88.44 151.421771 110.7618 90.7780185"></polygon>
            </g>
        </g>
    </g>
</svg>